<svg width="109" height="52" viewBox="0 0 109 52" fill="none" xmlns="http://www.w3.org/2000/svg">
<path d="M51 3.80661H12.916V52H51V3.80661Z" fill="white"/>
<path d="M20.659 41.9219C31.5163 41.9219 40.3179 32.9851 40.3179 21.961C40.3179 10.9369 31.5163 2 20.659 2C9.80162 2 1 10.9369 1 21.961C1 32.9851 9.80162 41.9219 20.659 41.9219Z" fill="#596F99" stroke="white" stroke-width="0.501"/>
<path d="M17.472 50.5817H14.6053V42.3258C18.1546 43.4086 22.1134 43.5439 25.9357 42.4613C37.1296 39.4838 43.8187 27.709 40.8154 16.3402C39.5868 11.7386 36.9931 7.949 33.5803 5.24219H49.5521V32.1754L17.472 50.5819" fill="#FCC200"/>
<path d="M49.5521 50.5816H20.2022L49.5521 33.9344V50.5816Z" fill="#567371"/>
<path d="M24.5706 13.9037L24.9801 14.5805L25.7992 14.4452L25.2531 14.9865L25.6627 15.7986L24.9801 15.3925L24.434 16.0692V15.2572L23.615 14.9865L24.434 14.7158L24.5706 13.9037Z" fill="white"/>
<path d="M4.63998 22.9718L5.18603 23.6485L5.86859 23.3778L5.45905 24.0545L5.86859 24.7312L5.04951 24.4605L4.63998 25.1372V24.3252L3.82092 24.0545L4.63998 23.7838V22.9718Z" fill="white"/>
<path d="M8.0527 29.8742L8.46223 30.5509L9.28131 30.2802L8.73525 30.9569L9.14479 31.6336L8.46223 31.363L7.9162 32.0397V31.0923L7.23364 30.8216L7.9162 30.6863L8.0527 29.8742Z" fill="white"/>
<path d="M15.8338 33.9344L16.2434 34.6112L17.0624 34.4759L16.5164 35.0172L17.0624 35.6939L16.2434 35.4233L15.6973 36.1L15.8338 35.2879L15.0148 35.0172L15.8338 34.7466V33.9344Z" fill="white"/>
<path d="M22.5229 30.2802L22.9325 30.957L23.7515 30.6863L23.2055 31.363L23.615 32.0398L22.9325 31.7691L22.3864 32.4458V31.4984L21.7039 31.2277L22.5229 31.0923V30.2802Z" fill="white"/>
<path d="M34.3993 24.8665L34.8089 25.6786L35.6279 25.4079L35.0819 26.0846L35.6279 26.7613L34.8089 26.4906L34.2628 27.032L34.3993 26.2199L33.5803 25.9493L34.3993 25.8139V24.8665Z" fill="white"/>
<path d="M35.7645 26.4907L36.174 27.0321L36.9931 26.8967L36.447 27.4381L36.8566 28.1148L36.174 27.8441L35.628 28.3855L35.7645 27.7088L35.0819 27.4381L35.7645 27.1674V26.4907Z" fill="white"/>
<path d="M34.5359 28.1148L34.9454 28.6562L35.7645 28.5208L35.2184 29.0622L35.628 29.7389L34.9454 29.4682L34.5359 30.0096V29.3329L33.8533 29.0622L34.5359 28.7915V28.1148Z" fill="white"/>
<path d="M32.3517 31.4984L32.7612 32.0398L33.5803 31.9044L33.0342 32.4458L33.4438 33.1225L32.7612 32.8518L32.3517 33.5285V32.7165L31.6691 32.4458L32.3517 32.1751V31.4984Z" fill="white"/>
<path d="M6.55109 32.5811L6.8241 32.9871L7.37014 32.8518L6.96062 33.2578L7.23364 33.7992L6.8241 33.5285L6.41457 33.9345V33.3932L5.86853 33.2578L6.41457 33.1225L6.55109 32.5811Z" fill="white"/>
<path d="M12.4211 30.957L12.6941 31.3631L13.2401 31.2277L12.9671 31.6337L13.2401 32.1751L12.6941 31.9044L12.4211 32.3104V31.7691L11.875 31.6337L12.4211 31.4984V30.957Z" fill="white"/>
<path d="M12.6941 33.1225L13.1036 33.6638L13.5131 33.5285L13.2401 33.9345L13.5131 34.4759L12.9671 34.2052L12.6941 34.6112V34.0699L12.148 33.9345L12.6941 33.7992V33.1225Z" fill="white"/>
<path d="M23.342 26.626L23.615 27.032L24.161 26.8966L23.888 27.3027L24.161 27.844L23.615 27.5733L23.342 27.9794V27.438L22.7959 27.3027L23.342 27.1673V26.626Z" fill="white"/>
<path d="M21.2943 25.0019L21.5673 25.4079L22.1133 25.2726L21.8403 25.8139L22.1133 26.2199L21.5673 26.0846L21.2943 26.4906V25.9493L20.7482 25.6786L21.2943 25.5432V25.0019Z" fill="white"/>
<path d="M13.7862 24.3252L14.0592 24.7312L14.6053 24.5959L14.1957 25.0019L14.6053 25.5433L14.0592 25.2726L13.6497 25.814L13.7862 25.1372L13.2402 25.0019L13.7862 24.8665V24.3252Z" fill="white"/>
<path d="M29.0754 33.3932L29.3484 33.9345L29.8945 33.7992L29.6215 34.2052L29.8945 34.7466L29.3484 34.4759L29.0754 34.8819V34.3405L28.5294 34.2052L29.0754 34.0699V33.3932Z" fill="white"/>
<path d="M33.5802 28.0889L33.8533 28.6302L34.3993 28.4949L34.1263 28.901L34.3993 29.307L33.8533 29.1717L33.5802 29.5777V29.0363L33.0342 28.901L33.5802 28.7656V28.0889Z" fill="white"/>
<path d="M31.8056 29.8742L32.0786 30.4156L32.6246 30.2802L32.2151 30.6863L32.4881 31.0923L32.0786 30.9569L31.6691 31.363V30.8216L31.2595 30.5509L31.6691 30.4156L31.8056 29.8742Z" fill="white"/>
<path d="M29.6215 31.0923L30.031 31.4983L30.4406 31.363L30.1675 31.9043L30.4406 32.3103L29.8945 32.175L29.6215 32.5811V32.0397L29.0754 31.769L29.6215 31.6336V31.0923Z" fill="white"/>
<path d="M27.3008 31.6337L27.5738 32.0398L28.1199 31.9044L27.7103 32.3104L27.9834 32.8518L27.5738 32.5811L27.1643 33.1225V32.4458L26.7548 32.3104L27.1643 32.1751L27.3008 31.6337Z" fill="white"/>
<path d="M36.8566 24.4605L36.9931 24.8665L37.5391 24.7312L37.2661 25.1372L37.5391 25.5432L36.9931 25.4079L36.7201 25.8139V25.2726L36.3105 25.1372L36.7201 25.0019L36.8566 24.4605Z" fill="white"/>
<path d="M19.5196 27.5734L19.7926 27.9795L20.2022 27.8441L19.9292 28.2501L20.2022 28.6562L19.7926 28.5208L19.5196 28.9268V28.3855L18.9736 28.2501L19.5196 28.1148V27.5734Z" fill="white"/>
<path d="M32.7612 33.6638L33.0342 34.0699L33.4437 33.9345L33.1707 34.2052L33.4437 34.6112L33.0342 34.4759L32.6247 34.8819L32.7612 34.3405L32.2151 34.2052L32.7612 34.0699V33.6638Z" fill="white"/>
<path d="M24.434 37.1827L24.5705 37.4534L24.8436 37.318L24.7071 37.5888L24.8436 37.7241H24.5705L24.434 37.8595V37.5888L24.161 37.4534H24.434V37.1827Z" fill="white"/>
<path d="M21.2943 28.6562L21.4308 28.9268L21.7038 28.7915L21.5673 29.0622L21.7038 29.3329L21.4308 29.1975L21.1578 29.3329L21.2943 29.0622H21.0212L21.2943 28.9268V28.6562Z" fill="white"/>
<path d="M9.96387 28.9268L10.1004 29.1975L10.3734 29.0622L10.2369 29.3329L10.3734 29.6035L10.1004 29.4682L9.82736 29.6035L9.96387 29.3329H9.69086L9.96387 29.1975V28.9268Z" fill="white"/>
<path d="M24.4341 20.4002L24.5706 20.8062L24.9801 20.6709L24.7071 20.9416L24.9801 21.3476L24.5706 21.2123L24.2976 21.4829V21.0769L24.0245 20.9416L24.4341 20.8062V20.4002Z" fill="white"/>
<path d="M54.1885 5.8075V4.14H61.4385V5.8075H58.6835V14H56.9435V5.8075H54.1885ZM66.4859 8.171C66.0315 8.171 65.5965 8.2435 65.1809 8.3885C64.7749 8.52383 64.3834 8.74617 64.0064 9.0555V14H62.3389V6.6485H63.9194V7.7795C64.4124 7.3155 64.8522 6.98683 65.2389 6.7935C65.6255 6.60017 66.0412 6.5035 66.4859 6.5035V8.171ZM69.6573 5.2565H67.9028V3.531H69.6573V5.2565ZM69.6138 14H67.9463V6.6485H69.6138V14ZM78.1026 10.7085C78.1026 11.7622 77.8416 12.5983 77.3196 13.217C76.7976 13.8357 76.034 14.145 75.0286 14.145C73.9846 14.145 72.9261 13.855 71.8531 13.275V3.27H73.5206V7.62C73.9653 7.17533 74.3471 6.8805 74.6661 6.7355C74.9851 6.58083 75.3138 6.5035 75.6521 6.5035C76.4255 6.5035 77.0248 6.80317 77.4501 7.4025C77.8851 8.00183 78.1026 8.84283 78.1026 9.9255V10.7085ZM75.2026 8.055C74.9706 8.055 74.7241 8.12267 74.4631 8.258C74.2118 8.39333 73.8976 8.65917 73.5206 9.0555V12.347C73.7816 12.4533 74.0185 12.5307 74.2311 12.579C74.4535 12.6273 74.671 12.6515 74.8836 12.6515C75.425 12.6515 75.8116 12.4775 76.0436 12.1295C76.2756 11.7815 76.3916 11.3078 76.3916 10.7085V9.9255C76.3916 9.27783 76.2853 8.80417 76.0726 8.5045C75.8696 8.20483 75.5796 8.055 75.2026 8.055ZM84.4039 14V13.0285C83.9592 13.4152 83.5436 13.7003 83.1569 13.884C82.7702 14.058 82.3787 14.145 81.9824 14.145C81.3251 14.145 80.8176 13.9227 80.4599 13.478C80.1022 13.0237 79.9234 12.3905 79.9234 11.5785V6.6485H81.5909V11.3755C81.5909 12.1875 81.8906 12.5935 82.4899 12.5935C82.7316 12.5935 82.9926 12.5355 83.2729 12.4195C83.5629 12.3035 83.9109 12.0812 84.3169 11.7525V6.6485H85.9844V14H84.4039ZM91.8763 8.055C91.6346 8.055 91.3591 8.113 91.0498 8.229C90.7404 8.345 90.3731 8.57217 89.9478 8.9105V14H88.2803V6.6485H89.8608V7.6345C90.3151 7.23817 90.7453 6.953 91.1513 6.779C91.5573 6.59533 91.9681 6.5035 92.3838 6.5035C93.0894 6.5035 93.6259 6.73067 93.9933 7.185C94.3606 7.62967 94.5443 8.258 94.5443 9.07V14H92.8768V9.273C92.8768 8.461 92.5433 8.055 91.8763 8.055ZM102.316 14.0725C101.823 14.0725 101.427 13.971 101.127 13.768C100.837 13.565 100.624 13.3137 100.489 13.014C100.073 13.4007 99.6722 13.6858 99.2855 13.8695C98.8989 14.0532 98.4832 14.145 98.0385 14.145C97.3909 14.145 96.9124 13.9372 96.603 13.5215C96.3034 13.1058 96.1535 12.579 96.1535 11.941C96.1535 11.5157 96.2309 11.1435 96.3855 10.8245C96.5499 10.4958 96.8157 10.2397 97.183 10.056C97.5504 9.87233 98.053 9.7805 98.691 9.7805C98.9424 9.7805 99.2034 9.79983 99.474 9.8385C99.7447 9.8675 100.015 9.90617 100.286 9.9545V9.099C100.286 8.693 100.175 8.4175 99.9525 8.2725C99.7302 8.11783 99.4305 8.0405 99.0535 8.0405C98.7635 8.0405 98.4445 8.07917 98.0965 8.1565C97.7582 8.23383 97.3909 8.35467 96.9945 8.519L96.516 7.098C97.4924 6.70167 98.3769 6.5035 99.1695 6.5035C99.8849 6.5035 100.436 6.62433 100.823 6.866C101.219 7.10767 101.494 7.42667 101.649 7.823C101.804 8.21933 101.881 8.64467 101.881 9.099V11.9265C101.881 12.0715 101.92 12.2117 101.997 12.347C102.084 12.4727 102.248 12.5355 102.49 12.5355H102.65V14.0725H102.316ZM97.763 11.912C97.763 12.173 97.821 12.3808 97.937 12.5355C98.053 12.6805 98.2222 12.753 98.4445 12.753C98.6669 12.753 98.9182 12.695 99.1985 12.579C99.4789 12.463 99.8414 12.1923 100.286 11.767V11.1435C99.7834 11.0565 99.2904 11.013 98.807 11.013C98.43 11.013 98.1594 11.0903 97.995 11.245C97.8404 11.3997 97.763 11.622 97.763 11.912ZM104.054 11.9265V3.27H105.721V11.9265C105.721 12.0715 105.755 12.2117 105.823 12.347C105.9 12.4727 106.045 12.5355 106.258 12.5355H106.49V14.0725H106.084C105.533 14.0725 105.112 13.9662 104.822 13.7535C104.532 13.5408 104.329 13.2702 104.213 12.9415C104.107 12.6128 104.054 12.2745 104.054 11.9265ZM57.509 30.5355C58.6303 30.5355 59.191 30.1198 59.191 29.2885C59.191 28.9502 59.104 28.6843 58.93 28.491C58.7657 28.2977 58.4563 28.1285 58.002 27.9835L56.813 27.592C55.392 27.128 54.6815 26.1952 54.6815 24.7935C54.6815 23.9815 54.9328 23.3145 55.4355 22.7925C55.9478 22.2608 56.7453 21.995 57.828 21.995C58.2823 21.995 58.7318 22.0482 59.1765 22.1545C59.6212 22.2512 60.0948 22.4107 60.5975 22.633L60.061 24.1265C59.597 23.9428 59.2007 23.8123 58.872 23.735C58.553 23.648 58.2243 23.6045 57.886 23.6045C57.4413 23.6045 57.0885 23.6867 56.8275 23.851C56.5762 24.0057 56.4505 24.2908 56.4505 24.7065C56.4505 25.0158 56.5375 25.272 56.7115 25.475C56.8952 25.6683 57.1948 25.8327 57.6105 25.968L58.7995 26.3595C59.5148 26.6012 60.0513 26.954 60.409 27.418C60.7763 27.8723 60.96 28.4765 60.96 29.2305C60.96 30.1005 60.6845 30.8062 60.1335 31.3475C59.5825 31.8792 58.7173 32.145 57.538 32.145C57.074 32.145 56.5907 32.0918 56.088 31.9855C55.595 31.8695 55.0537 31.6762 54.464 31.4055L55.0005 29.912C55.5418 30.144 56.001 30.3083 56.378 30.405C56.7647 30.492 57.1417 30.5355 57.509 30.5355ZM67.0294 32V31.0285C66.5847 31.4152 66.169 31.7003 65.7824 31.884C65.3957 32.058 65.0042 32.145 64.6079 32.145C63.9505 32.145 63.443 31.9227 63.0854 31.478C62.7277 31.0237 62.5489 30.3905 62.5489 29.5785V24.6485H64.2164V29.3755C64.2164 30.1875 64.516 30.5935 65.1154 30.5935C65.357 30.5935 65.618 30.5355 65.8984 30.4195C66.1884 30.3035 66.5364 30.0812 66.9424 29.7525V24.6485H68.6099V32H67.0294ZM74.0523 32.145C73.8106 32.145 73.5641 32.1208 73.3128 32.0725C73.0711 32.0242 72.8246 31.9565 72.5733 31.8695V35.0885H70.9058V24.6485H72.4863V25.649C72.9406 25.1947 73.3273 24.8902 73.6463 24.7355C73.9653 24.5808 74.2988 24.5035 74.6468 24.5035C75.4491 24.5035 76.0678 24.8032 76.5028 25.4025C76.9378 26.0018 77.1553 26.8428 77.1553 27.9255V28.7085C77.1553 29.7622 76.8894 30.5983 76.3578 31.217C75.8261 31.8357 75.0576 32.145 74.0523 32.145ZM74.1973 26.055C73.9749 26.055 73.7381 26.1227 73.4868 26.258C73.2451 26.3837 72.9406 26.6302 72.5733 26.9975V30.3615C73.0469 30.5548 73.4819 30.6515 73.8783 30.6515C74.4389 30.6515 74.8401 30.4775 75.0818 30.1295C75.3234 29.7815 75.4443 29.3078 75.4443 28.7085V27.9255C75.4443 27.2778 75.3331 26.8042 75.1108 26.5045C74.8981 26.2048 74.5936 26.055 74.1973 26.055ZM84.6728 31.5795C84.1702 31.7825 83.6965 31.9275 83.2518 32.0145C82.8072 32.1015 82.3867 32.145 81.9903 32.145C80.898 32.145 80.0715 31.8357 79.5108 31.217C78.9502 30.5983 78.6698 29.7767 78.6698 28.752V27.882C78.6698 27.1957 78.7955 26.6012 79.0468 26.0985C79.2982 25.5958 79.6558 25.2043 80.1198 24.924C80.5838 24.6437 81.13 24.5035 81.7583 24.5035C82.2707 24.5035 82.7492 24.6098 83.1938 24.8225C83.6482 25.0255 84.0155 25.3493 84.2958 25.794C84.5858 26.229 84.7308 26.7897 84.7308 27.476C84.7308 27.679 84.7163 27.8965 84.6873 28.1285C84.6583 28.3508 84.61 28.5877 84.5423 28.839H80.2793C80.2987 29.4383 80.4485 29.8878 80.7288 30.1875C81.0092 30.4872 81.4587 30.637 82.0773 30.637C82.406 30.637 82.7443 30.5983 83.0923 30.521C83.45 30.4437 83.8173 30.3277 84.1943 30.173L84.6728 31.5795ZM81.7583 25.91C81.3137 25.91 80.9657 26.055 80.7143 26.345C80.4727 26.6253 80.3325 27.0313 80.2938 27.563H83.0778C83.0875 27.5147 83.0923 27.4712 83.0923 27.4325C83.0923 27.3842 83.0923 27.3407 83.0923 27.302C83.0923 26.838 82.9618 26.49 82.7008 26.258C82.4398 26.026 82.1257 25.91 81.7583 25.91ZM90.7988 26.171C90.3445 26.171 89.9095 26.2435 89.4938 26.3885C89.0878 26.5238 88.6963 26.7462 88.3193 27.0555V32H86.6518V24.6485H88.2323V25.7795C88.7253 25.3155 89.1652 24.9868 89.5518 24.7935C89.9385 24.6002 90.3542 24.5035 90.7988 24.5035V26.171ZM93.9703 23.2565H92.2158V21.531H93.9703V23.2565ZM93.9268 32H92.2593V24.6485H93.9268V32ZM102.242 27.882V28.752C102.242 29.7767 101.961 30.5983 101.401 31.217C100.84 31.8357 100.047 32.145 99.0226 32.145C97.9979 32.145 97.2053 31.8357 96.6446 31.217C96.0839 30.5983 95.8036 29.7767 95.8036 28.752V27.882C95.8036 26.8573 96.0791 26.0405 96.6301 25.4315C97.1908 24.8128 97.9883 24.5035 99.0226 24.5035C100.057 24.5035 100.85 24.8128 101.401 25.4315C101.961 26.0405 102.242 26.8573 102.242 27.882ZM100.531 27.882C100.531 27.2923 100.4 26.8332 100.139 26.5045C99.8781 26.1662 99.5059 25.997 99.0226 25.997C98.5393 25.997 98.1671 26.1662 97.9061 26.5045C97.6451 26.8332 97.5146 27.2923 97.5146 27.882V28.752C97.5146 29.3417 97.6451 29.8057 97.9061 30.144C98.1671 30.4823 98.5393 30.6515 99.0226 30.6515C99.5059 30.6515 99.8781 30.4823 100.139 30.144C100.4 29.8057 100.531 29.3417 100.531 28.752V27.882ZM108.258 26.171C107.804 26.171 107.369 26.2435 106.953 26.3885C106.547 26.5238 106.156 26.7462 105.779 27.0555V32H104.111V24.6485H105.692V25.7795C106.185 25.3155 106.625 24.9868 107.011 24.7935C107.398 24.6002 107.814 24.5035 108.258 24.5035V26.171ZM61.076 48.3325V50H55.363V40.14H60.931V41.8075H57.103V44.171H60.496V45.8385H57.103V48.3325H61.076ZM62.8759 47.9265V39.27H64.5434V47.9265C64.5434 48.0715 64.5773 48.2117 64.6449 48.347C64.7223 48.4727 64.8673 48.5355 65.0799 48.5355H65.3119V50.0725H64.9059C64.3549 50.0725 63.9344 49.9662 63.6444 49.7535C63.3544 49.5408 63.1514 49.2702 63.0354 48.9415C62.9291 48.6128 62.8759 48.2745 62.8759 47.9265ZM72.5093 49.5795C72.0066 49.7825 71.5329 49.9275 71.0883 50.0145C70.6436 50.1015 70.2231 50.145 69.8268 50.145C68.7344 50.145 67.9079 49.8357 67.3473 49.217C66.7866 48.5983 66.5063 47.7767 66.5063 46.752V45.882C66.5063 45.1957 66.6319 44.6012 66.8833 44.0985C67.1346 43.5958 67.4923 43.2043 67.9563 42.924C68.4203 42.6437 68.9664 42.5035 69.5948 42.5035C70.1071 42.5035 70.5856 42.6098 71.0303 42.8225C71.4846 43.0255 71.8519 43.3493 72.1323 43.794C72.4223 44.229 72.5673 44.7897 72.5673 45.476C72.5673 45.679 72.5528 45.8965 72.5238 46.1285C72.4948 46.3508 72.4464 46.5877 72.3788 46.839H68.1158C68.1351 47.4383 68.2849 47.8878 68.5653 48.1875C68.8456 48.4872 69.2951 48.637 69.9138 48.637C70.2424 48.637 70.5808 48.5983 70.9288 48.521C71.2864 48.4437 71.6538 48.3277 72.0308 48.173L72.5093 49.5795ZM69.5948 43.91C69.1501 43.91 68.8021 44.055 68.5508 44.345C68.3091 44.6253 68.1689 45.0313 68.1303 45.563H70.9143C70.9239 45.5147 70.9288 45.4712 70.9288 45.4325C70.9288 45.3842 70.9288 45.3407 70.9288 45.302C70.9288 44.838 70.7983 44.49 70.5373 44.258C70.2763 44.026 69.9621 43.91 69.5948 43.91ZM76.1993 41.2565H74.4448V39.531H76.1993V41.2565ZM76.1558 50H74.4883V42.6485H76.1558V50ZM82.8756 49.7535C82.6243 49.8695 82.3343 49.9613 82.0056 50.029C81.677 50.1063 81.3435 50.145 81.0051 50.145C80.4445 50.145 79.995 50.029 79.6566 49.797C79.3183 49.565 79.0718 49.2412 78.9171 48.8255C78.7721 48.4098 78.6996 47.9362 78.6996 47.4045V44.0985H77.5106V42.6485H78.6996V40.7345H80.3671V42.6485H82.6581V44.0985H80.3671V47.4045C80.3671 47.8492 80.4493 48.1585 80.6136 48.3325C80.7876 48.4968 81.0341 48.579 81.3531 48.579C81.5078 48.579 81.6721 48.5645 81.8461 48.5355C82.0298 48.4968 82.2328 48.434 82.4551 48.347L82.8756 49.7535ZM90.2338 45.882V46.752C90.2338 47.7767 89.9535 48.5983 89.3928 49.217C88.8321 49.8357 88.0395 50.145 87.0148 50.145C85.9901 50.145 85.1975 49.8357 84.6368 49.217C84.0761 48.5983 83.7958 47.7767 83.7958 46.752V45.882C83.7958 44.8573 84.0713 44.0405 84.6223 43.4315C85.183 42.8128 85.9805 42.5035 87.0148 42.5035C88.0491 42.5035 88.8418 42.8128 89.3928 43.4315C89.9535 44.0405 90.2338 44.8573 90.2338 45.882ZM88.5228 45.882C88.5228 45.2923 88.3923 44.8332 88.1313 44.5045C87.8703 44.1662 87.4981 43.997 87.0148 43.997C86.5315 43.997 86.1593 44.1662 85.8983 44.5045C85.6373 44.8332 85.5068 45.2923 85.5068 45.882V46.752C85.5068 47.3417 85.6373 47.8057 85.8983 48.144C86.1593 48.4823 86.5315 48.6515 87.0148 48.6515C87.4981 48.6515 87.8703 48.4823 88.1313 48.144C88.3923 47.8057 88.5228 47.3417 88.5228 46.752V45.882ZM96.2505 44.171C95.7962 44.171 95.3612 44.2435 94.9455 44.3885C94.5395 44.5238 94.148 44.7462 93.771 45.0555V50H92.1035V42.6485H93.684V43.7795C94.177 43.3155 94.6168 42.9868 95.0035 42.7935C95.3902 42.6002 95.8058 42.5035 96.2505 42.5035V44.171ZM103.279 50.0725C102.786 50.0725 102.39 49.971 102.09 49.768C101.8 49.565 101.587 49.3137 101.452 49.014C101.036 49.4007 100.635 49.6858 100.248 49.8695C99.8618 50.0532 99.4461 50.145 99.0014 50.145C98.3538 50.145 97.8753 49.9372 97.5659 49.5215C97.2663 49.1058 97.1164 48.579 97.1164 47.941C97.1164 47.5157 97.1938 47.1435 97.3484 46.8245C97.5128 46.4958 97.7786 46.2397 98.1459 46.056C98.5133 45.8723 99.0159 45.7805 99.6539 45.7805C99.9053 45.7805 100.166 45.7998 100.437 45.8385C100.708 45.8675 100.978 45.9062 101.249 45.9545V45.099C101.249 44.693 101.138 44.4175 100.915 44.2725C100.693 44.1178 100.393 44.0405 100.016 44.0405C99.7264 44.0405 99.4074 44.0792 99.0594 44.1565C98.7211 44.2338 98.3538 44.3547 97.9574 44.519L97.4789 43.098C98.4553 42.7017 99.3398 42.5035 100.132 42.5035C100.848 42.5035 101.399 42.6243 101.785 42.866C102.182 43.1077 102.457 43.4267 102.612 43.823C102.767 44.2193 102.844 44.6447 102.844 45.099V47.9265C102.844 48.0715 102.883 48.2117 102.96 48.347C103.047 48.4727 103.211 48.5355 103.453 48.5355H103.612V50.0725H103.279ZM98.7259 47.912C98.7259 48.173 98.7839 48.3808 98.8999 48.5355C99.0159 48.6805 99.1851 48.753 99.4074 48.753C99.6298 48.753 99.8811 48.695 100.161 48.579C100.442 48.463 100.804 48.1923 101.249 47.767V47.1435C100.746 47.0565 100.253 47.013 99.7699 47.013C99.3929 47.013 99.1223 47.0903 98.9579 47.245C98.8033 47.3997 98.7259 47.622 98.7259 47.912ZM105.017 47.9265V39.27H106.684V47.9265C106.684 48.0715 106.718 48.2117 106.786 48.347C106.863 48.4727 107.008 48.5355 107.221 48.5355H107.453V50.0725H107.047C106.496 50.0725 106.075 49.9662 105.785 49.7535C105.495 49.5408 105.292 49.2702 105.176 48.9415C105.07 48.6128 105.017 48.2745 105.017 47.9265Z" fill="black"/>
</svg>
